<svg width="1600" height="900" viewBox="0 0 1600 900" fill="none" xmlns="http://www.w3.org/2000/svg">
  <rect width="1600" height="900" fill="#050815"/>
  <path d="M120 140H1480V760H120V140Z" stroke="#72F5FF" stroke-opacity="0.28"/>
  <path d="M120 220H1480" stroke="#72F5FF" stroke-opacity="0.18"/>
  <path d="M120 340H1480" stroke="#72F5FF" stroke-opacity="0.18"/>
  <path d="M120 460H1480" stroke="#72F5FF" stroke-opacity="0.18"/>
  <path d="M120 580H1480" stroke="#72F5FF" stroke-opacity="0.18"/>
  <path d="M120 700H1480" stroke="#72F5FF" stroke-opacity="0.18"/>
  <path d="M260 140V760" stroke="#72F5FF" stroke-opacity="0.18"/>
  <path d="M520 140V760" stroke="#72F5FF" stroke-opacity="0.18"/>
  <path d="M800 140V760" stroke="#FF3BB8" stroke-opacity="0.26"/>
  <path d="M1080 140V760" stroke="#72F5FF" stroke-opacity="0.18"/>
  <path d="M1340 140V760" stroke="#72F5FF" stroke-opacity="0.18"/>
  <rect x="580" y="280" width="440" height="320" fill="#0E1731" stroke="#72F5FF" stroke-opacity="0.42"/>
  <rect x="640" y="340" width="140" height="28" fill="#72F5FF" fill-opacity="0.14"/>
  <rect x="640" y="390" width="300" height="22" fill="#72F5FF" fill-opacity="0.09"/>
  <rect x="640" y="430" width="220" height="22" fill="#FF3BB8" fill-opacity="0.1"/>
  <rect x="640" y="470" width="260" height="22" fill="#72F5FF" fill-opacity="0.09"/>
</svg>
